<?xml version="1.0" encoding="UTF-8"?>
<svg width="19px" height="21px" viewBox="0 0 19 21" version="1.1" xmlns="http://www.w3.org/2000/svg" xmlns:xlink="http://www.w3.org/1999/xlink">
    <title>Icon: Sort</title>
    <g id="Desktop" stroke="none" stroke-width="1" fill="none" fill-rule="evenodd">
        <g id="Chef's-Table-L" transform="translate(-848.000000, -11408.000000)" fill="#460218" fill-rule="nonzero">
            <g id="STYLE-GUIDE" transform="translate(0.000000, 10850.000000)">
                <g id="Icons" transform="translate(637.000000, 363.000000)">
                    <g id="Icon:-Sort" transform="translate(216.214114, 195.976206)">
                        <path d="M8.11072217,0.309739573 L8.16941619,0.395940146 L13.3276402,9.39594015 L12.2062235,10.0386644 L8.254,3.144 L8.25497983,19.1970344 L6.96243583,19.1970344 L6.962,3.144 L3.01119219,10.0386644 L1.88977547,9.39594015 L7.04799947,0.395940146 C7.27855451,-0.00632919457 7.83378493,-0.0350627189 8.11072217,0.309739573 Z M1.28033099,0 L1.28,16.053 L5.23157462,9.15836997 L6.35299135,9.80109426 L1.19476735,18.8010943 C0.964212308,19.2033636 0.408981888,19.2320971 0.13204465,18.8872948 L0.0733506233,18.8010943 L-5.08487338,9.80109426 L-3.96345665,9.15836997 L-0.012,16.053 L-0.0122130142,0 L1.28033099,0 Z"></path>
                    </g>
                </g>
            </g>
        </g>
    </g>
</svg>