<?xml version="1.0" encoding="UTF-8"?>
<svg width="20px" height="20px" viewBox="0 0 20 20" version="1.1" xmlns="http://www.w3.org/2000/svg" xmlns:xlink="http://www.w3.org/1999/xlink">
    <title>Icon: Bookings Active</title>
    <g id="Desktop" stroke="none" stroke-width="1" fill="none" fill-rule="evenodd">
        <g id="Chef's-Table-L" transform="translate(-910.000000, -11254.000000)">
            <g id="STYLE-GUIDE" transform="translate(0.000000, 10850.000000)">
                <g id="Icons" transform="translate(637.000000, 363.000000)">
                    <g id="Icon:-Bookings" transform="translate(273.913482, 41.120128)">
                        <rect id="Rectangle" stroke="#D9BEA8" stroke-width="1.938816" x="0.969408" y="4.16891373" width="17.0829536" height="14.0587127" rx="1.938816"></rect>
                        <path d="M4.45062591,0 L5.06025887,0 C5.41718504,-6.55662737e-17 5.70653087,0.28934583 5.70653087,0.646272 L5.70653087,3.19950573 L5.70653087,3.19950573 L3.80435391,3.19950573 L3.80435391,0.646272 C3.80435391,0.28934583 4.09369975,6.55662737e-17 4.45062591,0 Z" id="Rectangle" fill="#D9BEA8"></path>
                        <path d="M13.9615107,0 L14.5711437,0 C14.9280698,-6.55662737e-17 15.2174157,0.28934583 15.2174157,0.646272 L15.2174157,3.19950573 L15.2174157,3.19950573 L13.3152387,3.19950573 L13.3152387,0.646272 C13.3152387,0.28934583 13.6045845,6.55662737e-17 13.9615107,0 Z" id="Rectangle-Copy" fill="#D9BEA8"></path>
                        <path d="M3.19950573,3.19950573 L15.7904096,3.19950573 C17.5750404,3.19950573 19.0217696,4.64623489 19.0217696,6.43086573 L19.0217696,9.5985172 L19.0217696,9.5985172 L0,9.5985172 L0,6.39901147 C-2.16399771e-16,4.63197325 1.43246751,3.19950573 3.19950573,3.19950573 Z" id="Rectangle" fill="#D9BEA8"></path>
                    </g>
                </g>
            </g>
        </g>
    </g>
</svg>