<?xml version="1.0" encoding="UTF-8"?>
<svg width="50px" height="12px" viewBox="0 0 50 12" version="1.1" xmlns="http://www.w3.org/2000/svg" xmlns:xlink="http://www.w3.org/1999/xlink">
    <title>Customer Star Rating</title>
    <g id="Desktop" stroke="none" stroke-width="1" fill="none" fill-rule="evenodd">
        <g id="Chef's-Table-L" transform="translate(-1029.000000, -11414.000000)" fill="#013220">
            <g id="STYLE-GUIDE" transform="translate(0.000000, 10850.000000)">
                <g id="Icons" transform="translate(637.000000, 363.000000)">
                    <g id="Customer-Star-Rating" transform="translate(392.078158, 201.335316)">
                        <polygon id="Star-4" points="34.5562147 7.67881376 31.7610358 9.2607364 32.2948675 5.91017049 30.0335203 3.53728654 33.1586253 3.04844557 34.5562147 0 35.9538042 3.04844557 39.0789092 3.53728654 36.817562 5.91017049 37.3513936 9.2607364"></polygon>
                        <polygon id="Star-4-Copy" points="44.0670995 7.67881376 41.2719206 9.2607364 41.8057523 5.91017049 39.544405 3.53728654 42.6695101 3.04844557 44.0670995 0 45.464689 3.04844557 48.589794 3.53728654 46.3284468 5.91017049 46.8622784 9.2607364"></polygon>
                        <polygon id="Star-3" points="24.411271 7.67881376 21.616092 9.2607364 22.1499237 5.91017049 19.8885765 3.53728654 23.0136815 3.04844557 24.411271 0 25.8088604 3.04844557 28.9339654 3.53728654 26.6726182 5.91017049 27.2064499 9.2607364"></polygon>
                        <polygon id="Star-2" points="14.2663272 7.67881376 11.4711483 9.2607364 12.0049799 5.91017049 9.7436327 3.53728654 12.8687377 3.04844557 14.2663272 0 15.6639166 3.04844557 18.7890217 3.53728654 16.5276744 5.91017049 17.0615061 9.2607364"></polygon>
                        <polygon id="Star-1" points="4.75544239 7.67881376 1.96026349 9.2607364 2.49409516 5.91017049 0.232747917 3.53728654 3.35785294 3.04844557 4.75544239 0 6.15303185 3.04844557 9.27813687 3.53728654 7.01678963 5.91017049 7.5506213 9.2607364"></polygon>
                    </g>
                </g>
            </g>
        </g>
    </g>
</svg>