<?xml version="1.0" encoding="UTF-8"?>
<svg width="23px" height="31px" viewBox="0 0 23 31" version="1.1" xmlns="http://www.w3.org/2000/svg" xmlns:xlink="http://www.w3.org/1999/xlink">
    <title>Icon: Back Arrow Light</title>
    <defs>
        <filter x="-118.3%" y="-70.3%" width="341.7%" height="244.8%" filterUnits="objectBoundingBox" id="filter-1">
            <feOffset dx="0" dy="1" in="SourceAlpha" result="shadowOffsetOuter1"></feOffset>
            <feGaussianBlur stdDeviation="3" in="shadowOffsetOuter1" result="shadowBlurOuter1"></feGaussianBlur>
            <feColorMatrix values="0 0 0 0 0.42745098   0 0 0 0 0.447058824   0 0 0 0 0.470588235  0 0 0 1 0" type="matrix" in="shadowBlurOuter1" result="shadowMatrixOuter1"></feColorMatrix>
            <feMerge>
                <feMergeNode in="shadowMatrixOuter1"></feMergeNode>
                <feMergeNode in="SourceGraphic"></feMergeNode>
            </feMerge>
        </filter>
    </defs>
    <g id="Desktop" stroke="none" stroke-width="1" fill="none" fill-rule="evenodd">
        <g id="Chef's-Table-L" transform="translate(-1102.000000, -11250.000000)" fill="#F6EEDF">
            <g id="STYLE-GUIDE" transform="translate(0.000000, 10850.000000)">
                <g id="Icons" transform="translate(637.000000, 363.000000)">
                    <g id="Icon:-Back-Arrow-Light" transform="translate(470.910180, 42.119634)" filter="url(#filter-1)">
                        <path d="M11.0783675,0.268507569 C11.4397296,0.587312252 11.4742293,1.13869642 11.1554246,1.50005859 C11.1357304,1.52238182 11.1149066,1.54368255 11.0930351,1.5638772 L2.39099248,9.598 L11.0930351,17.6331572 C11.4470858,17.9600626 11.4690915,18.5120866 11.1421861,18.8661373 C11.1219914,18.8880089 11.1006907,18.9088326 11.0783675,18.9285268 C10.6665458,19.2918484 10.0466551,19.2848293 9.64316581,18.9122759 L0.27732731,10.2645242 C0.0605877675,10.0644013 -0.0306490095,9.77919069 0.00755313436,9.50762811 C0.0145780274,9.32652558 0.081198841,9.14649919 0.210351966,9.00010532 C0.228613785,8.97940571 0.247922968,8.95965424 0.268206663,8.94093155 L9.64316581,0.284758476 C10.0466551,-0.0877949252 10.6665458,-0.0948139996 11.0783675,0.268507569 Z" id="Icon:-Back-Arrow"></path>
                    </g>
                </g>
            </g>
        </g>
    </g>
</svg>