<?xml version="1.0" encoding="UTF-8"?>
<svg width="21px" height="20px" viewBox="0 0 21 20" version="1.1" xmlns="http://www.w3.org/2000/svg" xmlns:xlink="http://www.w3.org/1999/xlink">
    <title>Icon: Home Active</title>
    <g id="Desktop" stroke="none" stroke-width="1" fill="none" fill-rule="evenodd">
        <g id="Chef's-Table-L" transform="translate(-781.000000, -11254.000000)" fill="#D9BEA8">
            <g id="STYLE-GUIDE" transform="translate(0.000000, 10850.000000)">
                <g id="Icons" transform="translate(637.000000, 363.000000)">
                    <g id="Icon:-Home-Active" transform="translate(145.199508, 41.120128)">
                        <path d="M-0.164477209,10.6636135 C-0.235862443,10.6636135 -0.293731609,10.6057443 -0.293731609,10.5343591 C-0.293731609,10.5023927 -0.281886145,10.4715603 -0.260483037,10.4478167 L9.19503417,-0.0416673295 C9.31452424,-0.174223716 9.51884827,-0.184816058 9.65140465,-0.0653259872 C9.65969413,-0.0578536138 9.66759094,-0.0499568117 9.67506331,-0.0416673295 L19.1305805,10.4478167 C19.1783765,10.5008393 19.1741396,10.5825689 19.1211171,10.6303649 C19.0973735,10.651768 19.0665411,10.6636135 19.0345747,10.6636135 L16.8525915,10.6636135 L16.8525915,18.8738984 C16.8525915,19.0523615 16.7079186,19.1970344 16.5294555,19.1970344 L11.907563,19.1970344 L11.907563,13.2309882 C11.907563,13.17388 11.8705267,13.1254221 11.819163,13.1083232 L11.7783086,13.1017338 L7.09178887,13.1017338 C7.03468068,13.1017338 6.98622278,13.13877 6.96912395,13.1901338 L6.96253447,13.2309882 L6.96253447,19.1970344 L2.34064193,19.1970344 C2.16217885,19.1970344 2.01750593,19.0523615 2.01750593,18.8738984 L2.01750593,10.6636135 L-0.164477209,10.6636135 Z" id="Icon:-Home"></path>
                    </g>
                </g>
            </g>
        </g>
    </g>
</svg>