<?xml version="1.0" encoding="UTF-8"?>
<svg width="31px" height="32px" viewBox="0 0 31 32" version="1.1" xmlns="http://www.w3.org/2000/svg" xmlns:xlink="http://www.w3.org/1999/xlink">
    <title>Icon: User Account Light</title>
    <defs>
        <filter x="-71.0%" y="-70.3%" width="247.1%" height="244.8%" filterUnits="objectBoundingBox" id="filter-1">
            <feOffset dx="0" dy="1" in="SourceAlpha" result="shadowOffsetOuter1"></feOffset>
            <feGaussianBlur stdDeviation="3" in="shadowOffsetOuter1" result="shadowBlurOuter1"></feGaussianBlur>
            <feColorMatrix values="0 0 0 0 0.42745098   0 0 0 0 0.447058824   0 0 0 0 0.470588235  0 0 0 1 0" type="matrix" in="shadowBlurOuter1" result="shadowMatrixOuter1"></feColorMatrix>
            <feMerge>
                <feMergeNode in="shadowMatrixOuter1"></feMergeNode>
                <feMergeNode in="SourceGraphic"></feMergeNode>
            </feMerge>
        </filter>
    </defs>
    <g id="Desktop" stroke="none" stroke-width="1" fill="none" fill-rule="evenodd">
        <g id="Chef's-Table-L" transform="translate(-710.000000, -11249.000000)" fill-rule="nonzero" stroke="#F6EEDF" stroke-width="1.292544">
            <g id="STYLE-GUIDE" transform="translate(0.000000, 10850.000000)">
                <g id="Icons" transform="translate(637.000000, 363.000000)">
                    <g id="Icon:-User-Account-Light" transform="translate(79.257373, 41.120128)" filter="url(#filter-1)">
                        <g id="Icon:-User-Account">
                            <path d="M9.51088479,0.646272 C11.958107,0.646272 14.1733775,1.64780335 15.7770218,3.26622348 C17.3828016,4.88679877 18.3754976,7.12574007 18.3754976,9.5985172 C18.3754976,12.0712943 17.3828016,14.3102356 15.7770218,15.9308109 C14.1733775,17.5492311 11.958107,18.5507624 9.51199387,18.5507634 C7.06618992,18.5465661 4.85272031,17.5440414 3.24948303,15.9260321 C1.64411774,14.3058751 0.650435111,12.0687636 0.646271599,9.5992373 C0.649025791,7.12741346 1.64237411,4.88968253 3.24787956,3.2693841 C4.85125446,1.65123585 7.06533372,0.64904778 9.51088479,0.646272 Z" id="Path"></path>
                            <path d="M9.51088479,0.889490753 C11.8961628,0.889490753 14.0559057,1.86476545 15.6191491,3.44240827 C17.1802556,5.01789449 18.1463212,7.1942702 18.1463195,9.59704057 C18.1514187,11.828774 17.2967915,13.9749917 15.7635994,15.5830765 C15.5370455,15.8206969 15.2980489,16.0440778 15.0481425,16.2522584 C14.9595167,15.9703511 14.8488185,15.6928096 14.7158138,15.4221081 C14.2252355,14.4236453 13.4755544,13.6085357 12.5722315,13.043358 C11.6701831,12.4789777 10.6149407,12.1638857 9.51212686,12.1644891 C8.40931114,12.1650925 7.35440624,12.48134 6.45296325,13.046708 C5.55024526,13.6128756 4.80143798,14.4288077 4.31193121,15.4278099 C4.17918716,15.6987185 4.06876679,15.9764465 3.98015352,16.2582282 C3.7300891,16.0501308 3.49100194,15.827143 3.26432656,15.589915 C1.72713719,13.9811632 0.87010793,11.8319857 0.875446387,9.5985172 C0.875446387,7.19427033 1.84151234,5.0178947 3.40261923,3.44240848 C4.96586317,1.86476554 7.12560673,0.889490753 9.51088479,0.889490753 Z" id="Path"></path>
                            <path d="M9.51088479,4.48567888 C10.2469161,4.48567888 10.9525314,4.78122263 11.4728867,5.30637238 C11.9954549,5.83375556 12.2885313,6.54917259 12.2885313,7.29487308 C12.2885313,8.07129351 11.9771422,8.77447206 11.4728867,9.28337377 C10.9707666,9.79012032 10.2772377,10.1040673 9.51088479,10.1040673 C8.7445319,10.1040673 8.05100298,9.79012032 7.54888291,9.28337377 C7.04462737,8.77447206 6.73323826,8.07129351 6.73323826,7.29487308 C6.73323826,6.51845264 7.04462737,5.81527409 7.54888291,5.30637238 C8.05100298,4.79962583 8.7445319,4.48567888 9.51088479,4.48567888 Z" id="Path"></path>
                        </g>
                    </g>
                </g>
            </g>
        </g>
    </g>
</svg>