<?xml version="1.0" encoding="UTF-8"?>
<svg width="19px" height="19px" viewBox="0 0 19 19" version="1.1" xmlns="http://www.w3.org/2000/svg" xmlns:xlink="http://www.w3.org/1999/xlink">
    <title>Icon: Grid view x 3</title>
    <g id="Desktop" stroke="none" stroke-width="1" fill="none" fill-rule="evenodd">
        <g id="Chef's-Table-L" transform="translate(-1103.000000, -11331.000000)" stroke="#460218" stroke-width="1.292544">
            <g id="STYLE-GUIDE" transform="translate(0.000000, 10850.000000)">
                <g id="Icons" transform="translate(637.000000, 363.000000)">
                    <g id="Icon:-Grid-view-x-3" transform="translate(466.969591, 118.708266)">
                        <path d="M3.77992789,13.4442949 L4.42619989,16.6246881 L1.292544,17.2709601 L0.646272,14.0905669 L3.77992789,13.4442949 Z M10.1205177,13.4442949 L10.7667897,16.6246881 L7.63313386,17.2709601 L6.98686186,14.0905669 L10.1205177,13.4442949 Z M16.4611076,13.4442949 L17.1073796,16.6246881 L13.9737237,17.2709601 L13.3274517,14.0905669 L16.4611076,13.4442949 Z M3.77992789,7.04528347 L4.42619989,10.2256766 L1.292544,10.8719486 L0.646272,7.69155547 L3.77992789,7.04528347 Z M10.1205177,7.04528347 L10.7667897,10.2256766 L7.63313386,10.8719486 L6.98686186,7.69155547 L10.1205177,7.04528347 Z M16.4611076,7.04528347 L17.1073796,10.2256766 L13.9737237,10.8719486 L13.3274517,7.69155547 L16.4611076,7.04528347 Z M3.77992789,0.646272 L4.42619989,3.82666518 L1.292544,4.47293718 L0.646272,1.292544 L3.77992789,0.646272 Z M10.1205177,0.646272 L10.7667897,3.82666518 L7.63313386,4.47293718 L6.98686186,1.292544 L10.1205177,0.646272 Z M16.4611076,0.646272 L17.1073796,3.82666518 L13.9737237,4.47293718 L13.3274517,1.292544 L16.4611076,0.646272 Z" id="Icon:-Grid-view"></path>
                    </g>
                </g>
            </g>
        </g>
    </g>
</svg>