<?xml version="1.0" encoding="UTF-8"?>
<svg width="20px" height="20px" viewBox="0 0 20 20" version="1.1" xmlns="http://www.w3.org/2000/svg" xmlns:xlink="http://www.w3.org/1999/xlink">
    <title>Icon: Like</title>
    <g id="Desktop" stroke="none" stroke-width="1" fill="none" fill-rule="evenodd">
        <g id="Chef's-Table-L" transform="translate(-847.000000, -11329.000000)" stroke="#460218" stroke-width="1.938816">
            <g id="STYLE-GUIDE" transform="translate(0.000000, 10850.000000)">
                <g id="Icons" transform="translate(637.000000, 363.000000)">
                    <g id="Icon:-Like" transform="translate(210.507583, 115.988563)">
                        <path d="M13.6718969,0.969408 C14.875028,0.969408 15.9611373,1.49325371 16.7485116,2.33083299 C17.5569065,3.19077308 18.0523616,4.37999138 18.0523616,5.6909936 C18.0523616,6.6689534 17.7768186,7.57871841 17.3011727,8.33495835 C17.1275239,8.60056636 16.993887,8.77670504 16.8454565,8.94474027 L16.8454565,8.94474027 L9.98714627,18.0118287 L2.16398789,8.93073063 C2.02215525,8.76878641 1.89093302,8.5961947 1.77145727,8.41410153 C1.24916987,7.58183433 0.969408,6.67136776 0.969408,5.6909936 C0.969408,4.37999138 1.46486308,3.19077308 2.27325795,2.33083299 C3.06063232,1.49325371 4.1467416,0.969408 5.34987269,0.969408 C6.72210098,0.969408 7.94083482,1.65057005 8.73975227,2.70113469 C9.09864097,3.17306802 9.36306012,3.70672258 9.51224365,4.27124611 C9.66080977,3.70655827 9.92473777,3.1727504 10.2833073,2.7007549 C11.0812974,1.6503373 12.2999022,0.969408 13.6718969,0.969408 Z" id="Combined-Shape"></path>
                    </g>
                </g>
            </g>
        </g>
    </g>
</svg>