<?xml version="1.0" encoding="UTF-8"?>
<svg width="13px" height="21px" viewBox="0 0 13 21" version="1.1" xmlns="http://www.w3.org/2000/svg" xmlns:xlink="http://www.w3.org/1999/xlink">
    <title>Icon: Location Pin</title>
    <g id="Desktop" stroke="none" stroke-width="1" fill="none" fill-rule="evenodd">
        <g id="Chef's-Table-L" transform="translate(-914.000000, -11408.000000)" fill="#460218">
            <g id="STYLE-GUIDE" transform="translate(0.000000, 10850.000000)">
                <g id="Icons" transform="translate(637.000000, 363.000000)">
                    <g id="Icon:-Location-Pin" transform="translate(277.083777, 195.976206)">
                        <path d="M6.34058986,0 C9.84240094,0 12.6811797,2.86493502 12.6811797,6.39901147 C12.6811797,10.2384184 10.5676498,14.504426 6.34058986,19.1970344 C2.11352995,14.504426 0,10.2384184 0,6.39901147 C0,2.86493502 2.83877877,0 6.34058986,0 Z M6.55194285,3.35948102 C4.80103731,3.35948102 3.38164792,4.75613684 3.38164792,6.47899911 C3.38164792,8.20186138 4.80103731,9.5985172 6.55194285,9.5985172 C8.3028484,9.5985172 9.72223778,8.20186138 9.72223778,6.47899911 C9.72223778,4.75613684 8.3028484,3.35948102 6.55194285,3.35948102 Z"></path>
                    </g>
                </g>
            </g>
        </g>
    </g>
</svg>