<?xml version="1.0" encoding="UTF-8"?>
<svg width="20px" height="20px" viewBox="0 0 20 20" version="1.1" xmlns="http://www.w3.org/2000/svg" xmlns:xlink="http://www.w3.org/1999/xlink">
    <title>Icon: Search Active</title>
    <g id="Desktop" stroke="none" stroke-width="1" fill="none" fill-rule="evenodd">
        <g id="Chef's-Table-L" transform="translate(-910.000000, -11328.000000)" fill="#D9BEA8">
            <g id="STYLE-GUIDE" transform="translate(0.000000, 10850.000000)">
                <g id="Icons" transform="translate(637.000000, 363.000000)">
                    <g id="Icon:-Search-Active" transform="translate(273.279423, 115.988563)">
                        <path d="M6.82606972,2.4158453e-13 C10.5960039,2.4158453e-13 13.6521394,3.08429446 13.6521394,6.8889645 C13.6521394,8.3770249 13.1846415,9.75488923 12.3897848,10.8811269 L18.4509271,16.9971877 C18.8964066,17.4467718 18.8964066,18.1713481 18.4509271,18.6209322 C18.0106924,19.0652232 17.2936426,19.0685115 16.8493516,18.6282768 C16.8468922,18.6258398 16.844444,18.6233916 16.842007,18.6209322 L10.7805693,12.5048165 C9.66483807,13.306466 8.30000927,13.777929 6.82606972,13.777929 C3.05613551,13.777929 0,10.6936345 0,6.8889645 C0,3.08429446 3.05613551,2.4158453e-13 6.82606972,2.4158453e-13 Z M6.82606972,2.2963215 C4.31278025,2.2963215 2.27535657,4.35508805 2.27535657,6.8947053 C2.27535657,9.43432255 4.31278025,11.4930891 6.82606972,11.4930891 C9.33935919,11.4930891 11.3767829,9.43432255 11.3767829,6.8947053 C11.3767829,4.35508805 9.33935919,2.2963215 6.82606972,2.2963215 Z" id="Icon:-Search"></path>
                    </g>
                </g>
            </g>
        </g>
    </g>
</svg>