<?xml version="1.0" encoding="UTF-8"?>
<svg width="51px" height="12px" viewBox="0 0 51 12" version="1.1" xmlns="http://www.w3.org/2000/svg" xmlns:xlink="http://www.w3.org/1999/xlink">
    <title>Rate</title>
    <g id="Desktop" stroke="none" stroke-width="1" fill="none" fill-rule="evenodd">
        <g id="Chef's-Table-L" transform="translate(-1093.000000, -11414.000000)">
            <g id="STYLE-GUIDE" transform="translate(0.000000, 10850.000000)">
                <g id="Icons" transform="translate(637.000000, 363.000000)">
                    <g id="Rate" transform="translate(456.118116, 201.335316)">
                        <path d="M44.7011585,0.775371995 L45.8773394,3.3408774 L48.5641339,3.76115617 L46.6182258,5.80304252 L47.071677,8.6491046 L44.7011585,7.30751717 L42.33064,8.6491046 L42.7840912,5.80304252 L40.8381831,3.76115617 L43.5249777,3.3408774 L44.7011585,0.775371995 Z" id="Star-5" stroke="#460218" stroke-width="0.646272"></path>
                        <polygon id="Star-4" fill="#460218" points="34.5562147 7.67881376 31.7610358 9.2607364 32.2948675 5.91017049 30.0335203 3.53728654 33.1586253 3.04844557 34.5562147 0 35.9538042 3.04844557 39.0789092 3.53728654 36.817562 5.91017049 37.3513936 9.2607364"></polygon>
                        <polygon id="Star-3" fill="#460218" points="25.0453299 7.67881376 22.250151 9.2607364 22.7839827 5.91017049 20.5226355 3.53728654 23.6477405 3.04844557 25.0453299 0 26.4429194 3.04844557 29.5680244 3.53728654 27.3066772 5.91017049 27.8405088 9.2607364"></polygon>
                        <polygon id="Star-2" fill="#460218" points="14.9003862 7.67881376 12.1052073 9.2607364 12.6390389 5.91017049 10.3776917 3.53728654 13.5027967 3.04844557 14.9003862 0 16.2979756 3.04844557 19.4230806 3.53728654 17.1617334 5.91017049 17.6955651 9.2607364"></polygon>
                        <polygon id="Star-1" fill="#460218" points="4.75544239 7.67881376 1.96026349 9.2607364 2.49409516 5.91017049 0.232747917 3.53728654 3.35785294 3.04844557 4.75544239 0 6.15303185 3.04844557 9.27813687 3.53728654 7.01678963 5.91017049 7.5506213 9.2607364"></polygon>
                    </g>
                </g>
            </g>
        </g>
    </g>
</svg>