<?xml version="1.0" encoding="UTF-8"?>
<svg width="15px" height="19px" viewBox="0 0 15 19" version="1.1" xmlns="http://www.w3.org/2000/svg" xmlns:xlink="http://www.w3.org/1999/xlink">
    <title>Icon: Map view</title>
    <g id="Desktop" stroke="none" stroke-width="1" fill="none" fill-rule="evenodd">
        <g id="Chef's-Table-L" transform="translate(-719.000000, -11410.000000)" stroke="#460218" stroke-width="1.292544">
            <g id="STYLE-GUIDE" transform="translate(0.000000, 10850.000000)">
                <g id="Icons" transform="translate(637.000000, 363.000000)">
                    <g id="Icon:-Map-view" transform="translate(82.744698, 197.256008)">
                        <path d="M6.65761935,0.646272 C8.32626394,0.646272 9.83936362,1.2486309 10.9337109,2.23034687 C12.0012619,3.18802452 12.6689667,4.50891403 12.6689667,5.97241071 C12.6689667,9.3055663 10.6268657,12.9713017 6.65707742,17.0022899 C2.68811439,12.9708375 0.646272,9.30535525 0.646272,5.97241071 C0.646272,4.50891403 1.31397679,3.18802452 2.38152783,2.23034687 C3.47587508,1.2486309 4.98897476,0.646272 6.65761935,0.646272 Z M6.65761935,3.12914477 C5.69057575,3.12914477 4.81480868,3.52426924 4.18098188,4.16393606 C3.54929055,4.80144774 3.15808191,5.68202453 3.15808191,6.65497193 C3.15808191,7.62791933 3.54929055,8.50849612 4.18098188,9.14600779 C4.81480868,9.78567462 5.69057575,10.1807991 6.65761935,10.1807991 C7.62466295,10.1807991 8.50043002,9.78567462 9.13425682,9.14600779 C9.76594815,8.50849612 10.1571568,7.62791933 10.1571568,6.65497193 C10.1571568,5.68202453 9.76594815,4.80144774 9.13425682,4.16393606 C8.50043002,3.52426924 7.62466295,3.12914477 6.65761935,3.12914477 Z"></path>
                    </g>
                </g>
            </g>
        </g>
    </g>
</svg>