<?xml version="1.0" encoding="UTF-8"?>
<svg width="20px" height="20px" viewBox="0 0 20 20" version="1.1" xmlns="http://www.w3.org/2000/svg" xmlns:xlink="http://www.w3.org/1999/xlink">
    <title>Icon: Like Active</title>
    <g id="Desktop" stroke="none" stroke-width="1" fill="none" fill-rule="evenodd">
        <g id="Chef's-Table-L" transform="translate(-782.000000, -11329.000000)" fill="#460218">
            <g id="STYLE-GUIDE" transform="translate(0.000000, 10850.000000)">
                <g id="Icons" transform="translate(637.000000, 363.000000)">
                    <g id="Icon:-Like-Active" transform="translate(145.199508, 115.988563)">
                        <path d="M13.6718969,7.95858366e-15 C16.62655,7.95858366e-15 19.0217696,2.54794462 19.0217696,5.6909936 C19.0217696,6.86125034 18.6897182,7.94900723 18.1203725,8.85346517 L18.1301241,8.85265671 L18.0626922,8.94323258 C17.9209164,9.15942498 17.765391,9.36465606 17.5974644,9.55749136 L10.0361551,19.5539857 C9.82084396,19.8386564 9.4155286,19.8948834 9.13085792,19.6795722 C9.08361715,19.6438416 9.04151265,19.6017862 9.00572688,19.5545872 L1.43472745,9.56942545 C1.26254826,9.37283161 1.1032981,9.16325432 0.958417274,8.94222575 L0.891645449,8.85265671 L0.901397089,8.85346517 C0.33205142,7.94900723 0,6.86125034 0,5.6909936 C0,2.54794462 2.39521959,7.95858366e-15 5.34987269,7.95858366e-15 C7.03077133,7.95858366e-15 8.53061162,0.824631717 9.51138545,2.1143348 C10.491158,0.824631717 11.9909982,7.95858366e-15 13.6718969,7.95858366e-15 Z" id="Combined-Shape"></path>
                    </g>
                </g>
            </g>
        </g>
    </g>
</svg>