<?xml version="1.0" encoding="UTF-8"?>
<svg width="20px" height="20px" viewBox="0 0 20 20" version="1.1" xmlns="http://www.w3.org/2000/svg" xmlns:xlink="http://www.w3.org/1999/xlink">
    <title>Icon: Chefs Active</title>
    <g id="Desktop" stroke="none" stroke-width="1" fill="none" fill-rule="evenodd">
        <g id="Chef's-Table-L" transform="translate(-651.000000, -11329.000000)" fill="#D9BEA8">
            <g id="STYLE-GUIDE" transform="translate(0.000000, 10850.000000)">
                <g id="Icons" transform="translate(637.000000, 363.000000)">
                    <g id="Icon:-Chefs" transform="translate(14.583357, 115.988563)">
                        <path d="M9.82791428,0 C11.8986115,0 13.6601929,1.33567648 14.3129027,3.19990475 C16.9175837,3.22472449 19.0217696,5.36375081 19.0217696,7.99876434 C19.0217696,10.5416953 17.0620789,12.6226986 14.5836896,12.787505 L14.5833567,17.9044904 C14.5833567,18.6183427 14.004665,19.1970344 13.2908127,19.1970344 L5.7309569,19.1970344 C5.01710456,19.1970344 4.4384129,18.6183427 4.4384129,17.9044904 L4.43807993,12.787505 C1.95969071,12.6226986 0,10.5416953 0,7.99876434 C0,5.348207 2.12908408,3.19950573 4.75544239,3.19950573 C4.95055897,3.19950573 5.14293097,3.21136496 5.33188928,3.23440816 C5.97363191,1.35242161 7.74427753,0 9.82791428,0 Z M6.97464884,11.5182206 C6.62446774,11.5182206 6.34058986,11.8020985 6.34058986,12.1522796 L6.34058986,12.1522796 L6.34058986,16.643272 C6.34058986,16.9934531 6.62446774,17.277331 6.97464884,17.277331 C7.32482995,17.277331 7.60870783,16.9934531 7.60870783,16.643272 L7.60870783,16.643272 L7.60870783,12.1522796 C7.60870783,11.8020985 7.32482995,11.5182206 6.97464884,11.5182206 Z M12.0471207,11.5182206 C11.6969396,11.5182206 11.4130617,11.8020985 11.4130617,12.1522796 L11.4130617,12.1522796 L11.4130617,16.643272 C11.4130617,16.9934531 11.6969396,17.277331 12.0471207,17.277331 C12.3973018,17.277331 12.6811797,16.9934531 12.6811797,16.643272 L12.6811797,16.643272 L12.6811797,12.1522796 C12.6811797,11.8020985 12.3973018,11.5182206 12.0471207,11.5182206 Z M9.51088479,11.5182206 C9.16070368,11.5182206 8.8768258,11.8020985 8.8768258,12.1522796 L8.8768258,12.1522796 L8.8768258,16.643272 C8.8768258,16.9934531 9.16070368,17.277331 9.51088479,17.277331 C9.8610659,17.277331 10.1449438,16.9934531 10.1449438,16.643272 L10.1449438,16.643272 L10.1449438,12.1522796 C10.1449438,11.8020985 9.8610659,11.5182206 9.51088479,11.5182206 Z" id="Combined-Shape"></path>
                    </g>
                </g>
            </g>
        </g>
    </g>
</svg>