<?xml version="1.0" encoding="UTF-8"?>
<svg width="31px" height="31px" viewBox="0 0 31 31" version="1.1" xmlns="http://www.w3.org/2000/svg" xmlns:xlink="http://www.w3.org/1999/xlink">
    <title>Icon: Search</title>
    <defs>
        <filter x="-71.0%" y="-70.3%" width="241.9%" height="244.8%" filterUnits="objectBoundingBox" id="filter-1">
            <feOffset dx="0" dy="1" in="SourceAlpha" result="shadowOffsetOuter1"></feOffset>
            <feGaussianBlur stdDeviation="3" in="shadowOffsetOuter1" result="shadowBlurOuter1"></feGaussianBlur>
            <feColorMatrix values="0 0 0 0 0.42745098   0 0 0 0 0.447058824   0 0 0 0 0.470588235  0 0 0 1 0" type="matrix" in="shadowBlurOuter1" result="shadowMatrixOuter1"></feColorMatrix>
            <feMerge>
                <feMergeNode in="shadowMatrixOuter1"></feMergeNode>
                <feMergeNode in="SourceGraphic"></feMergeNode>
            </feMerge>
        </filter>
    </defs>
    <g id="Desktop" stroke="none" stroke-width="1" fill="none" fill-rule="evenodd">
        <g id="Chef's-Table-L" transform="translate(-970.000000, -11324.000000)" fill="#F6EEDF">
            <g id="STYLE-GUIDE" transform="translate(0.000000, 10850.000000)">
                <g id="Icons" transform="translate(637.000000, 363.000000)">
                    <g id="Icon:-Search" transform="translate(339.221557, 115.988563)" filter="url(#filter-1)">
                        <path d="M6.34058986,4.32547998e-09 C9.84240094,4.32547998e-09 12.6811797,2.86493503 12.6811797,6.39901147 C12.6811797,7.89166488 12.1747751,9.26495137 11.3258956,10.3534309 C11.4573529,10.3963465 11.5807373,10.4708071 11.685857,10.5749671 C11.6879131,10.5770044 11.6899597,10.5790511 11.691997,10.5811071 L18.4172081,17.3682837 C18.7896249,17.7441319 18.7896249,18.3498709 18.4172081,18.725719 C18.049176,19.0971422 17.449729,19.0998912 17.0783059,18.731859 L17.0721659,18.725719 L10.3469548,11.9385424 C10.233426,11.8239676 10.1545058,11.6880292 10.110194,11.5437523 C9.05701364,12.3321438 7.75271098,12.7980229 6.34058986,12.7980229 C2.83877877,12.7980229 0,9.93308792 0,6.39901147 C0,2.86493503 2.83877877,4.32547998e-09 6.34058986,4.32547998e-09 Z M6.39673998,1.65642036 C3.77038167,1.65642036 1.64129759,3.80512162 1.64129759,6.45567896 C1.64129759,9.10623629 3.77038167,11.2549376 6.39673998,11.2549376 C9.02309829,11.2549376 11.1521824,9.10623629 11.1521824,6.45567896 C11.1521824,3.80512162 9.02309829,1.65642036 6.39673998,1.65642036 Z"></path>
                    </g>
                </g>
            </g>
        </g>
    </g>
</svg>