<?xml version="1.0" encoding="UTF-8"?>
<svg width="80px" height="80px" viewBox="0 0 80 80" version="1.1" xmlns="http://www.w3.org/2000/svg" xmlns:xlink="http://www.w3.org/1999/xlink">
    <title>Marque</title>
    <defs>
        <radialGradient cx="50%" cy="50%" fx="50%" fy="50%" r="92.562934%" id="radialGradient-1">
            <stop stop-color="#024630" offset="0%"></stop>
            <stop stop-color="#057C5E" offset="100%"></stop>
        </radialGradient>
    </defs>
    <g id="Desktop" stroke="none" stroke-width="1" fill="none" fill-rule="evenodd">
        <g id="Chefs-Table-L" transform="translate(-800.000000, -6375.000000)">
            <g id="STYLE-GUIDE" transform="translate(126.000000, 6229.000000)">
                <g id="Logo" transform="translate(509.600000, 107.994248)">
                    <g id="Marque" transform="translate(164.800000, 38.405752)">
                        <circle id="Oval" stroke="#024630" stroke-width="0.616" fill="url(#radialGradient-1)" cx="39.0257778" cy="39.0257778" r="38.7177778"></circle>
                        <path d="M40.0014222,8.19541333 C46.3737037,8.19541333 51.7947543,12.2681174 53.8035905,17.9525424 C61.8196848,18.0288737 68.2951111,24.5514906 68.2951111,32.5865244 C68.2951111,40.3412163 62.2636568,46.6871865 54.6359914,47.1891919 L54.6360889,64.76288 C54.6360889,65.8515437 53.7535526,66.73408 52.6648889,66.73408 L25.3866667,66.73408 C24.298003,66.73408 23.4154667,65.8515437 23.4154667,64.76288 L23.4155641,47.1891919 C15.7878987,46.6871865 9.75644444,40.3412163 9.75644444,32.5865244 C9.75644444,24.5040212 16.3086079,17.9518578 24.3911111,17.9518578 C24.9906308,17.9518578 25.5817307,17.9879073 26.1623614,18.057957 C28.1406776,12.3189481 33.5894983,8.19541333 40.0014222,8.19541333 Z M32.1863111,43.3186133 L30.2549333,43.3186133 C29.7106015,43.3186133 29.2693333,43.7598815 29.2693333,44.3042133 L29.2693333,44.3042133 L29.2693333,59.8946133 C29.2693333,60.4389452 29.7106015,60.8802133 30.2549333,60.8802133 L30.2549333,60.8802133 L32.1863111,60.8802133 C32.730643,60.8802133 33.1719111,60.4389452 33.1719111,59.8946133 L33.1719111,59.8946133 L33.1719111,44.3042133 C33.1719111,43.7598815 32.730643,43.3186133 32.1863111,43.3186133 L32.1863111,43.3186133 Z M47.7966222,43.3186133 L45.8652444,43.3186133 C45.3209126,43.3186133 44.8796444,43.7598815 44.8796444,44.3042133 L44.8796444,44.3042133 L44.8796444,59.8946133 C44.8796444,60.4389452 45.3209126,60.8802133 45.8652444,60.8802133 L45.8652444,60.8802133 L47.7966222,60.8802133 C48.3409541,60.8802133 48.7822222,60.4389452 48.7822222,59.8946133 L48.7822222,59.8946133 L48.7822222,44.3042133 C48.7822222,43.7598815 48.3409541,43.3186133 47.7966222,43.3186133 L47.7966222,43.3186133 Z M39.9914667,43.3186133 L38.0600889,43.3186133 C37.515757,43.3186133 37.0744889,43.7598815 37.0744889,44.3042133 L37.0744889,44.3042133 L37.0744889,59.8946133 C37.0744889,60.4389452 37.515757,60.8802133 38.0600889,60.8802133 L38.0600889,60.8802133 L39.9914667,60.8802133 C40.5357985,60.8802133 40.9770667,60.4389452 40.9770667,59.8946133 L40.9770667,59.8946133 L40.9770667,44.3042133 C40.9770667,43.7598815 40.5357985,43.3186133 39.9914667,43.3186133 L39.9914667,43.3186133 Z" id="Combined-Shape" fill="#F6EEDF"></path>
                    </g>
                </g>
            </g>
        </g>
    </g>
</svg>