<?xml version="1.0" encoding="UTF-8"?>
<svg width="80px" height="80px" viewBox="0 0 80 80" version="1.1" xmlns="http://www.w3.org/2000/svg" xmlns:xlink="http://www.w3.org/1999/xlink">
    <title>Primary logo</title>
    <defs>
        <linearGradient x1="50%" y1="50%" x2="50%" y2="127.962891%" id="linearGradient-1">
            <stop stop-color="#036143" offset="0%"></stop>
            <stop stop-color="#013220" offset="100%"></stop>
        </linearGradient>
    </defs>
    <g id="Desktop" stroke="none" stroke-width="1" fill="none" fill-rule="evenodd">
        <g id="Chefs-Table-L" transform="translate(-636.000000, -6375.000000)">
            <g id="STYLE-GUIDE" transform="translate(126.000000, 6229.000000)">
                <g id="Logo" transform="translate(509.600000, 107.994248)">
                    <g id="Primary-logo" transform="translate(0.800000, 38.405752)">
                        <circle id="Oval" fill="url(#linearGradient-1)" cx="39.2" cy="39.2" r="39.2"></circle>
                        <path d="M40.18,8.232 C46.5809482,8.232 52.0263534,12.3231658 54.0439922,18.0332737 C62.0962547,18.1099532 68.6,24.661461 68.6,32.732 C68.6,40.5210554 62.5420172,46.8951931 54.8806564,47.3998083 L54.88,66.248 C54.88,66.6809912 54.5289912,67.032 54.096,67.032 L24.304,67.032 C23.8710088,67.032 23.52,66.6809912 23.52,66.248 L23.520344,47.3998742 C15.8585101,46.895748 9.8,40.5213944 9.8,32.732 C9.8,24.6134142 16.3814142,18.032 24.5,18.032 C25.1023943,18.032 25.6963257,18.0682343 26.2797334,18.1386424 C28.2663592,12.373903 33.739483,8.232 40.18,8.232 Z M32.928,43.512 L29.792,43.512 C29.5755044,43.512 29.4,43.6875044 29.4,43.904 L29.4,43.904 L29.4,60.76 C29.4,60.9764956 29.5755044,61.152 29.792,61.152 L29.792,61.152 L32.928,61.152 C33.1444956,61.152 33.32,60.9764956 33.32,60.76 L33.32,60.76 L33.32,43.904 C33.32,43.6875044 33.1444956,43.512 32.928,43.512 L32.928,43.512 Z M48.608,43.512 L45.472,43.512 C45.2555044,43.512 45.08,43.6875044 45.08,43.904 L45.08,43.904 L45.08,60.76 C45.08,60.9764956 45.2555044,61.152 45.472,61.152 L45.472,61.152 L48.608,61.152 C48.8244956,61.152 49,60.9764956 49,60.76 L49,60.76 L49,43.904 C49,43.6875044 48.8244956,43.512 48.608,43.512 L48.608,43.512 Z M40.768,43.512 L37.632,43.512 C37.4155044,43.512 37.24,43.6875044 37.24,43.904 L37.24,43.904 L37.24,60.76 C37.24,60.9764956 37.4155044,61.152 37.632,61.152 L37.632,61.152 L40.768,61.152 C40.9844956,61.152 41.16,60.9764956 41.16,60.76 L41.16,60.76 L41.16,43.904 C41.16,43.6875044 40.9844956,43.512 40.768,43.512 L40.768,43.512 Z" id="Combined-Shape" fill="#F6EEDF" opacity="0.15"></path>
                        <text id="TABLE" font-family="NotoSerif-Bold, Noto Serif" font-size="17.64" font-weight="bold" fill="#F6EEDF">
                            <tspan x="9.35067383" y="61.336">TABLE</tspan>
                        </text>
                        <text id="CHEFS" font-family="NotoSerif-Bold, Noto Serif" font-size="17.64" font-weight="bold" fill="#F6EEDF">
                            <tspan x="9.68228516" y="37.032">CHEFS</tspan>
                        </text>
                    </g>
                </g>
            </g>
        </g>
    </g>
</svg>