<?xml version="1.0" encoding="UTF-8"?>
<svg width="39px" height="39px" viewBox="0 0 39 39" version="1.1" xmlns="http://www.w3.org/2000/svg" xmlns:xlink="http://www.w3.org/1999/xlink">
    <title>Behance</title>
    <g id="Symbols" stroke="none" stroke-width="1" fill="none" fill-rule="evenodd">
        <g id="Behance">
            <path d="M19.031,38.061 L19.031,38.061 C8.52,38.061 -1.42108547e-14,29.541 -1.42108547e-14,19.031 C-1.42108547e-14,8.521 8.52,0 19.031,0 C29.541,0 38.061,8.521 38.061,19.031 C38.061,29.541 29.541,38.061 19.031,38.061" id="Fill-34" fill="#FFFFFF"></path>
            <path d="M10.96,23.212 L10.96,19.659 L14.24,19.659 C14.813,19.665 15.256,19.74 15.572,19.885 C16.138,20.144 16.421,20.62 16.421,21.313 C16.421,22.133 16.129,22.687 15.545,22.977 C15.224,23.134 14.773,23.212 14.196,23.212 L10.96,23.212 Z M10.96,14.515 L13.859,14.515 C14.497,14.515 15.022,14.584 15.434,14.723 C15.911,14.922 16.15,15.332 16.15,15.952 C16.15,16.513 15.969,16.903 15.608,17.123 C15.248,17.343 14.778,17.453 14.199,17.453 L10.96,17.453 L10.96,14.515 Z M16.19,25.345 C16.768,25.225 17.27,25.002 17.696,24.676 C18.072,24.393 18.388,24.044 18.64,23.628 C19.035,23 19.232,22.293 19.232,21.503 C19.232,20.738 19.059,20.087 18.714,19.551 C18.367,19.014 17.854,18.622 17.174,18.375 C17.622,18.146 17.96,17.893 18.191,17.616 C18.602,17.122 18.808,16.467 18.808,15.654 C18.808,14.864 18.603,14.186 18.196,13.62 C17.519,12.698 16.367,12.225 14.743,12.201 L8.302,12.201 L8.302,25.526 L14.307,25.526 C14.983,25.526 15.612,25.466 16.19,25.345 L16.19,25.345 Z" id="Fill-35" fill="#6900FA"></path>
            <path d="M23.33,18.097 C23.694,17.723 24.206,17.535 24.867,17.535 C25.476,17.535 25.985,17.712 26.396,18.065 C26.807,18.42 27.036,18.939 27.082,19.623 L22.643,19.623 C22.737,18.981 22.966,18.473 23.33,18.097 Z M21.489,24.648 C22.491,25.457 23.649,25.861 24.96,25.861 C26.549,25.861 27.785,25.382 28.667,24.423 C29.235,23.82 29.553,23.226 29.622,22.642 L26.992,22.642 C26.839,22.931 26.662,23.157 26.461,23.32 C26.094,23.621 25.618,23.772 25.031,23.772 C24.477,23.772 24.004,23.649 23.611,23.401 C22.963,23.004 22.62,22.31 22.58,21.322 L29.757,21.322 C29.769,20.471 29.741,19.819 29.672,19.366 C29.552,18.594 29.29,17.914 28.887,17.33 C28.44,16.666 27.872,16.179 27.183,15.872 C26.497,15.564 25.725,15.41 24.866,15.41 C23.423,15.41 22.248,15.866 21.343,16.777 C20.438,17.687 19.986,18.996 19.986,20.703 C19.986,22.525 20.487,23.84 21.489,24.648 L21.489,24.648 Z" id="Fill-36" fill="#6900FA"></path>
            <polygon id="Fill-37" fill="#6900FA" points="21.803 14.312 27.594 14.312 27.594 12.967 21.803 12.967"></polygon>
        </g>
    </g>
</svg>