<?xml version="1.0" encoding="UTF-8"?>
<svg width="39px" height="39px" viewBox="0 0 39 39" version="1.1" xmlns="http://www.w3.org/2000/svg" xmlns:xlink="http://www.w3.org/1999/xlink">
    <title>Email</title>
    <g id="Symbols" stroke="none" stroke-width="1" fill="none" fill-rule="evenodd">
        <g id="Email" fill="#FFFFFF">
            <polyline id="Fill-37" points="11.2450616 14.8427131 11.2450616 23.5623769 15.6052936 19.2029451 11.2450616 14.8427131"></polyline>
            <path d="M21.8203646,21.3842614 C21.2650331,21.940393 20.5344602,22.2188589 19.8038873,22.2188589 C19.0733144,22.2188589 18.3427415,21.940393 17.7858097,21.3842614 L16.9496117,20.5472633 L12.5877794,24.9090956 L27.0191951,24.9090956 L22.6573627,20.5472633 L21.8203646,21.3842614" id="Fill-38"></path>
            <path d="M20.4760464,20.039143 L27.0167945,13.4983949 L12.5901799,13.4983949 L19.130928,20.039143 C19.5022159,20.4096307 20.1055587,20.4096307 20.4760464,20.039143" id="Fill-39"></path>
            <path d="M30.2639631,23.9584706 C30.2639631,25.531643 28.98366,26.8111458 27.4112879,26.8111458 L12.1964867,26.8111458 C10.6233144,26.8111458 9.34381155,25.531643 9.34381155,23.9584706 L9.34381155,14.4490199 C9.34381155,12.8718466 10.6297159,11.5963447 12.1964867,11.5963447 L27.4112879,11.5963447 C28.9884612,11.5963447 30.2639631,12.8822491 30.2639631,14.4490199 L30.2639631,23.9584706 Z M19.2045455,0 L19.2045455,0 C8.59803504,0 0,8.59803504 0,19.2045455 C0,29.8102557 8.59803504,38.4090909 19.2045455,38.4090909 C29.8110559,38.4090909 38.4090909,29.8102557 38.4090909,19.2045455 C38.4090909,8.59803504 29.8110559,0 19.2045455,0 L19.2045455,0 Z" id="Fill-40"></path>
            <polyline id="Fill-41" points="28.3619129 23.5623769 28.3619129 14.8427131 24.0024811 19.2029451 28.3619129 23.5623769"></polyline>
        </g>
    </g>
</svg>