<?xml version="1.0" encoding="UTF-8"?>
<svg width="39px" height="39px" viewBox="0 0 39 39" version="1.1" xmlns="http://www.w3.org/2000/svg" xmlns:xlink="http://www.w3.org/1999/xlink">
    <title>LinkedIn</title>
    <g id="Symbols" stroke="none" stroke-width="1" fill="none" fill-rule="evenodd">
        <g id="LinkedIn">
            <path d="M19.031,38.061 L19.031,38.061 C8.52,38.061 1.42108547e-14,29.541 1.42108547e-14,19.031 C1.42108547e-14,8.521 8.52,0 19.031,0 C29.541,0 38.061,8.521 38.061,19.031 C38.061,29.541 29.541,38.061 19.031,38.061" id="Fill-20" fill="#FFFFFF"></path>
            <polygon id="Fill-21" fill="#6900FA" points="10.401 28.512 14.34 28.512 14.34 15.789 10.401 15.789"></polygon>
            <path d="M12.352,14.123 C13.638,14.123 14.681,13.07 14.681,11.774 C14.681,10.478 13.638,9.427 12.352,9.427 C11.065,9.427 10.023,10.478 10.023,11.774 C10.023,13.07 11.065,14.123 12.352,14.123" id="Fill-22" fill="#6900FA"></path>
            <path d="M20.636,21.833 C20.636,20.045 21.459,18.979 23.036,18.979 C24.484,18.979 25.18,20.002 25.18,21.833 C25.18,23.666 25.18,28.512 25.18,28.512 L29.1,28.512 C29.1,28.512 29.1,23.864 29.1,20.456 C29.1,17.048 27.168,15.4 24.47,15.4 C21.771,15.4 20.636,17.502 20.636,17.502 L20.636,15.789 L16.858,15.789 L16.858,28.512 L20.636,28.512 C20.636,28.512 20.636,23.793 20.636,21.833" id="Fill-23" fill="#6900FA"></path>
        </g>
    </g>
</svg>