<?xml version="1.0" encoding="UTF-8"?>
<svg width="400px" height="400px" viewBox="0 0 400 400" version="1.1" xmlns="http://www.w3.org/2000/svg" xmlns:xlink="http://www.w3.org/1999/xlink">
    <title>logo_vc_original</title>
    <g id="logo_vc_original" stroke="none" stroke-width="1" fill="none" fill-rule="evenodd">
        <rect id="Rectangle" fill="#FFFFFF" x="0" y="0" width="400" height="400"></rect>
        <path d="M244.651871,345.511612 C243.010279,349.418574 238.803978,353.665614 232.032967,358.252731 C225.261955,362.839849 219.523539,366.785095 214.817719,370.08847 C202.088985,378.763769 194.255651,384.637772 191.317719,387.71048 C188.379786,390.783188 183.238479,394.879694 175.893799,400 L162,400 C167.028849,397.088206 173.842386,390.905643 182.440613,381.452309 C191.038839,371.998975 211.775925,360.018743 244.651871,345.511612 Z" id="Neck-shadow" fill="#000000"></path>
        <path d="M248.706421,343.353394 C245.885985,344.074943 246.824268,345.281465 245.344976,347.342033 C243.300344,350.190089 239.145239,354.32708 236.6296,357.987335 C227.736658,370.926564 220.649984,389.170458 219.706421,400.353394" id="Neck" stroke="#000000" stroke-width="3"></path>
        <g id="hair" transform="translate(13.788693, 12.637188)">
            <path d="M257.616337,18.4277531 C249.535094,8.81600937 239.422065,6.26919071 228.163242,4.17424359 C220.647493,2.77577631 212.648982,-0.366265282 204.597233,0.0351292133 C188.320578,0.846550374 171.740629,7.53004296 157.891117,12.1042668 C146.941906,15.7205776 135.156201,16.9686935 124.682438,21.7918889 C93.1274776,36.3230304 79.6038469,70.1561555 61.0694005,96.5686833 C43.286801,121.909791 15.1553762,143.778752 6.87707873,174.693378 C-0.611661766,202.659468 -6.29753697,248.366185 13.8992345,272.966022 C18.358863,278.397887 14.155302,258.893399 13.6530797,251.88332 C13.1020903,244.192543 11.158772,236.634778 10.7447545,228.935413 C10.1874434,218.571256 10.4236421,208.172185 10.7447545,197.798023 C10.8205879,195.348079 11.113825,192.851459 11.93317,190.54134 C13.328258,186.60793 13.6313364,181.182556 17.3261754,179.241901 C20.3710411,177.642634 14.9036779,185.755561 14.5345494,189.175007 C13.8003628,195.976191 13.3682887,202.883401 14.0391881,209.69112 C14.6115558,215.499023 17.5080333,220.898863 18.2316319,226.689869 C19.6742102,238.234913 15.3042665,251.116925 20.5152623,261.51955 C24.5677672,269.609499 36.2899817,270.596035 43.1696202,276.473163 C47.4512816,280.130895 50.7060719,284.934212 53.5875279,289.77248 C55.3567654,292.743215 56.4150774,296.171796 56.9368932,299.589862 C57.3342478,302.192667 56.9988299,304.926836 56.2880895,307.462055 C55.8688943,308.957329 54.7182145,310.174016 53.6528966,311.303913 C52.7927241,312.216228 51.8487517,313.41992 50.5972936,313.497821 C47.5196296,313.689402 39.0387986,310.15137 41.4583776,312.063007 L42.1520421,315.617267 C45.277511,318.086607 48.9179017,320.164511 52.8062779,321.028644 C60.6828016,322.779083 53.0009131,320.972331 61.0694005,321.028644 C63.9941509,321.049057 67.1891681,318.039372 68.8286778,315.617267 C71.0845686,312.284562 73.867171,314.028621 73.7888073,310.004963 C73.7428544,307.64547 73.867171,302.286762 85.0557897,302.286762 C88.7886924,306.122566 95.6056514,316.099402 100.532718,318.190326 C102.328508,318.952414 104.414223,317.039651 105.825443,315.692768 C107.40912,314.18129 108.01453,311.900898 109.109073,310.004963 C196.993513,320.621662 246.495935,332.721027 257.616337,346.303058 C263.018074,352.900532 261.439243,346.303058 274.827457,338.603656 C279.071615,336.162892 276.280156,333.77292 281.810703,334.190937 C297.464763,335.374121 356.933862,298.334508 366.211307,289.77248 C383.204546,274.089651 375.329807,207.956363 372.535648,200.695591 C369.741489,193.434818 366.211307,171.126896 358.416538,148.145374 C350.621769,125.163852 340.142701,102.465756 332.976597,88.2297246 C324.480096,71.3507566 314.314247,43.6502738 293.817844,24.8723713 C291.720792,22.9511446 287.718412,20.8029385 281.810703,18.4277531 C278.29829,18.0072071 275.970542,18.0072071 274.827457,18.4277531 C272.855272,19.1533289 281.752593,21.8399872 280.231365,20.6402699 C277.387574,18.3975127 272.953225,17.3238268 266.928318,17.419212 L257.616337,18.4277531 Z" stroke="#000000" fill="#000000"></path>
            <path d="M61.4890704,128.726435 C59.8072477,162.454451 59.3146426,187.138153 60.0112552,202.777541 C60.7078678,218.416929 62.7838926,229.281992 66.2393298,235.37273 L52.8340719,215.799602 C51.6885106,215.973264 51.6240783,208.546957 52.640775,193.520681 C53.6574716,178.494405 56.6069035,156.896323 61.4890704,128.726435 Z" id="Triangle" fill="#FFFFFF" transform="translate(59.081513, 182.049582) rotate(18.000000) translate(-59.081513, -182.049582) "></path>
            <path d="M322.508488,21.1066358 C299.223827,73.3183036 284.45183,111.039557 278.192499,134.270396 C271.933168,157.501235 269.721553,174.404433 271.557653,184.979988 L262.508488,189.106636 C264.545821,169.535961 269.267889,148.274941 276.674693,125.323574 C284.081497,102.372208 299.359429,67.6332281 322.508488,21.1066358 Z" id="Triangle" fill="#FFFFFF" transform="translate(292.508488, 105.106636) rotate(134.000000) translate(-292.508488, -105.106636) "></path>
            <path d="M355.719379,69.7039483 C341.383917,119.218975 331.78317,155.242948 326.917141,177.775866 C322.051112,200.308784 320.331793,216.70416 321.759185,226.961996 L314.719379,251.703948 C316.306509,218.895045 319.979113,191.359673 325.737193,169.097832 C331.495272,146.83599 341.489334,113.704696 355.719379,69.7039483 Z" id="Triangle-Copy-4" fill="#FFFFFF" transform="translate(335.219379, 160.703948) scale(1, -1) rotate(186.000000) translate(-335.219379, -160.703948) "></path>
            <path d="M358.53253,43.0218198 C342.141676,91.4803875 331.164394,126.735748 325.600683,148.7879 C320.036971,170.840053 318.07114,186.885616 319.703189,196.924588 L311.65403,221.138644 C313.468719,189.029756 317.667894,162.081882 324.251556,140.295022 C330.835217,118.508162 342.262209,86.0837614 358.53253,43.0218198 Z" id="Triangle-Copy-6" fill="#FFFFFF" transform="translate(335.093280, 132.080232) scale(1, -1) rotate(187.000000) translate(-335.093280, -132.080232) "></path>
            <path d="M356.12296,115.095818 C342.983733,162.867642 334.18413,197.623371 329.724151,219.363006 C325.264171,241.102641 323.558948,255.519809 324.608481,262.614512 L320.12296,283.095818 C320.525171,256.503699 323.365073,232.468589 328.642664,210.990487 C333.920255,189.512385 343.080354,157.547496 356.12296,115.095818 Z" id="Triangle-Copy-5" fill="#FFFFFF" transform="translate(338.122960, 199.095818) scale(1, -1) rotate(182.000000) translate(-338.122960, -199.095818) "></path>
            <path d="M294.44546,40.0044315 C287.704957,60.7615151 281.55285,82.7121449 275.989138,105.856321 C270.425427,129.000497 268.459596,145.840637 270.091644,156.37674 L262.048142,160.487993 C263.85906,140.990327 268.05635,119.808621 274.640011,96.9428752 C281.223673,74.077129 287.825489,55.0976478 294.44546,40.0044315 Z" id="Triangle-Copy" fill="#FFFFFF" transform="translate(278.246801, 100.246212) rotate(134.000000) translate(-278.246801, -100.246212) "></path>
            <path d="M283.27024,52.0062013 C277.72088,72.2403299 272.164345,94.0887092 266.600634,117.551339 C261.036922,141.013969 260.676215,153.049497 265.518513,153.657922 L257.475011,157.825744 C259.285928,138.059799 263.483218,116.586642 270.06688,93.4062728 C276.650541,70.2259038 281.051661,56.42588 283.27024,52.0062013 Z" id="Triangle-Copy-2" fill="#FFFFFF" transform="translate(270.372625, 104.915973) rotate(134.000000) translate(-270.372625, -104.915973) "></path>
            <path d="M271.003867,70.9460901 C269.196839,80.1415861 265.51147,96.5575758 259.947758,120.194059 C254.384047,143.830543 254.778347,153.379946 261.130658,148.842269 L253.087156,153.040974 C254.898073,133.128567 259.095363,111.496298 265.679025,88.1441667 C272.262686,64.7920358 274.037634,59.0593436 271.003867,70.9460901 Z" id="Triangle-Copy-3" fill="#FFFFFF" transform="translate(262.763251, 108.986312) rotate(134.000000) translate(-262.763251, -108.986312) "></path>
            <path d="M305.990947,219.066367 C304.010083,223.78845 302.554172,227.449165 301.623214,230.048513 C300.334147,233.647746 298.670416,236.611982 297.820209,241.282335 C296.761505,247.098003 295.262603,253.60874 293.996989,260.343691 C289.555284,283.980175 289.852242,299.938127 294.887863,308.217549 L287.605814,293.107444 C288.484702,279.889079 289.530384,269.763017 290.742861,262.729258 C292.561575,252.17862 296.257266,231.944737 299.490737,225.501914 C313.065921,198.452805 315.232657,196.307623 305.990947,219.066367 Z" id="Triangle-Copy-7" fill="#FFFFFF" transform="translate(299.605814, 255.842579) scale(1, -1) rotate(160.000000) translate(-299.605814, -255.842579) "></path>
            <path d="M145.850052,75.5120124 L159.33367,97.351614 C153.043046,87.2853042 145.826959,81.7962767 137.685408,80.8845314 C129.543857,79.9727862 118.796153,80.4980218 105.442294,82.4602382 L145.850052,75.5120124 Z" id="Triangle" fill="#FFFFFF" transform="translate(132.387982, 86.431813) rotate(-45.000000) translate(-132.387982, -86.431813) "></path>
            <path d="M160.863178,20.0836406 C170.434496,17.2723257 160.186806,19.0885195 174.471548,13.1848664 C191.31029,6.22568601 208.477984,5.70298483 218.147394,6.23892484 C222.832335,6.49859399 226.730406,9.51061554 231.863178,10.6407416" id="Path-20" stroke="#FFFFFF" stroke-width="2"></path>
        </g>
        <path d="M233.45123,99.0685865 C236.731701,96.9662999 239.862534,94.9126759 242.653409,95.9932282 C246.503839,97.4840122 251.185293,104.739966 256.906775,117.411518 C289.636484,167.127451 308.324273,203.503042 312.98296,226.696925 C317.609447,249.730494 311.605942,276.091457 295.067657,305.792703 C233.347326,357.247885 192.122619,382.253222 171.365128,380.354742 C162.53022,379.546702 146.190144,355.51333 136.934089,342.153697 C134.799078,339.07215 133.035506,336.527442 131.81685,334.907352 C103.209003,296.875862 88.7589722,272.105075 88.7589722,260.559326 C87.701939,247.119981 91.2917312,227.057922 99.4734085,200.292326 C107.687266,173.421454 121.690517,142.90101 141.475401,108.727853 C144.596192,103.729536 148.610085,100.166623 153.529767,98.054349 C158.497384,95.921494 164.37568,95.265974 171.158646,96.0540031 C173.706016,96.3499506 177.157736,97.5067486 181.301601,98.8818394 C192.280924,102.525193 207.95045,107.683213 224.533189,103.617134 C227.119556,102.982958 229.711729,101.441409 232.228563,99.8474337 L232.228563,99.8474337 L232.887433,99.4288795 L232.887433,99.4288795 Z" id="face" stroke="#000000" stroke-width="2" fill="#FFFFFF"></path>
        <g id="eye-right" transform="translate(201.535376, 202.653942)">
            <path d="M0,18.3407253 C1.80234705,14.79691 3.1123426,12.5063574 3.92998667,11.4690674 C5.24056674,9.80642269 6.74069962,9.55530919 7.51032419,8.8664677 C9.38377338,7.18966375 11.9310276,5.87052575 13.4429145,5.18298379 C21.9289338,1.32390252 26.1182801,1.32390252 28.6028459,1.32390252 C31.0874116,1.32390252 33.9363253,0.912277167 35.9830567,1 C41.4190508,1.23298651 44.2923625,2.26825243 45.6231172,2.53357355 C52.8567456,3.97578855 57.3002785,7.76506086 59.3925187,8.8664677 C62.6794599,10.5967946 67.3701617,14.0331944 73.4646241,19.1756671 L51.9811074,19.1756671 L44.081659,20.5131725 C42.7108999,20.5131725 40.2611176,20.5131725 36.7323121,20.5131725 C33.2035065,20.5131725 29.9080852,18.2723761 26.8460481,13.7907833 C30.4486075,15.1874101 32.9737438,15.6553005 34.421457,15.1944546 C36.5930268,14.5031857 40.1780335,12.3210396 40.1780335,11.4690674 C40.1780335,10.5327244 42.4246399,9.56877144 40.1780335,7.50624124 C39.5358218,6.91664922 32.17279,6.39926005 25.1063325,6.71158639 C22.0132691,6.84829494 13.6444916,10.7246746 0,18.3407253 Z" fill="#000000"></path>
            <path d="M57.8481385,8.92507593 C59.9044505,8.83614014 61.7875548,8.64754847 63.7342687,8.38636075 C64.7440906,8.25087445 65.5995658,7.21373178 66.6766755,7.04295389" id="Path-2" stroke="#000000" stroke-width="2"></path>
            <path d="M61.5476167,13.5219235 C65.2719453,13.3799066 68.6825656,13.0787544 72.2083937,12.6616775 C74.037352,12.4453265 75.7771401,11.0292925 77.7279679,10.7565863" id="Path-2-Copy" stroke="#000000" stroke-width="2"></path>
            <path d="M70.5476167,18.5219235 C74.2719453,18.3799066 77.6825656,18.0787544 81.2083937,17.6616775 C83.037352,17.4453265 84.6352562,16.3437935 86.5860841,16.0710873" id="Path-2-Copy-2" stroke="#000000" stroke-width="2"></path>
        </g>
        <g id="eye-left" transform="translate(101.000000, 197.675321)">
            <path d="M49.7130494,0 C48.223291,2.57538375 48.0532179,5.58391917 49.20283,9.02560624 C50.0696148,11.6205703 53.6787366,17.2231296 54.4590396,25.3793156 C54.6287787,27.1535289 53.9502577,30.0352343 52.4234766,34.0244316 C52.470424,28.6505111 51.0619959,25.4525326 48.198192,24.4304961 C45.3343882,23.4084595 42.4230401,23.0101867 39.4641476,23.2356777 C40.3050813,16.9665285 41.1990704,12.318275 42.1461149,9.29091705 C43.0931594,6.2635591 45.6154709,3.16658675 49.7130494,0 Z" fill="#000000" transform="translate(46.974331, 17.012216) rotate(120.000000) translate(-46.974331, -17.012216) "></path>
            <path d="M11.156189,7.10303729 C15.6942286,5.74631594 19.0506383,4.93284192 21.2254181,4.66261523 C23.4001979,4.39238853 25.8204679,4.39238853 28.4862281,4.66261523 C31.7771828,4.78441142 34.3633063,5.00509929 36.2445984,5.32467883 C38.1258905,5.64425837 41.0443577,6.54319178 45,8.02147906 L45,12.3246788 C39.9596778,9.77065763 34.9442257,8.49364703 29.9536438,8.49364703 C26.7448975,8.49364703 22.0845184,9.81286852 16.9062424,12.3246788 C16.5656806,12.4898741 14.3303106,12.0832375 13.3774414,12.3246788 C11.9848804,12.6775308 7.52573322,11.4005202 0,8.49364703 L11.156189,7.10303729 Z" id="Rectangle" fill="#000000"></path>
            <path d="M6.14690399,1.93081515 C10.17316,6.51327202 7.30166277,4.36865628 16.146904,6.40085452" id="Path-15" stroke="#000000" stroke-width="2"></path>
            <path d="M16.146904,0.930815148 C20.17316,6.05656069 17.3016628,3.65768278 26.146904,5.93081515" id="Path-15-Copy" stroke="#000000" stroke-width="2"></path>
            <path d="M35.3975296,5.16307299 C47.0777533,6.16252093 41.3769453,4.89425473 52.4885178,9.01891558" id="Path-17" stroke="#000000"></path>
        </g>
        <path d="M216.21225,191.130146 C224.843543,182.410092 243.140417,173.781291 257.795853,173.03949 C266.885346,172.579415 270.482408,177.454863 276.034637,184.460358 C269.373486,177.200998 262.90304,173.921392 256.623299,174.62154 C252.297104,175.103881 244.724754,177.204038 234.888741,182.069993 C230.946556,184.020223 226.427278,187.725635 221.935562,189.93549 C220.287937,190.746095 218.380167,191.144314 216.21225,191.130146 Z" id="eyebrow-right" stroke="#000000" stroke-width="3" fill="#000000"></path>
        <path d="M120.80854,171.411107 C122.611461,170.974675 124.977055,171.217007 126.757354,171.431968 C127.398615,171.509396 128.054569,171.577651 128.719864,171.646829 C131.228083,171.907636 133.876688,172.173667 136.351046,173.053559 C137.71809,173.539685 139.018559,174.257656 140.297565,174.958897 C141.686598,175.720463 143.052407,176.462902 144.436284,176.931318 C146.184945,177.523207 146.966968,178.18137 148.309294,179.282096 C149.519729,180.274669 151.141055,181.604012 154.09495,183.513746 C154.795458,183.966634 154.973507,186.70432 154.973507,188.679463 C154.973507,189.380922 154.939206,190.030262 154.837066,190.517697 C143.656838,180.861309 132.425547,173.143639 117.315867,172.465068 L117.315867,172.465068 L115.846,172.535 L115.87481,172.528792 C116.755347,172.303072 117.758154,172.084006 118.67616,171.885204 L119.016032,171.811629 C119.704832,171.662454 120.331106,171.52668 120.80854,171.411107 Z" id="eyebrow-left" stroke="#000000" stroke-width="2" fill="#000000"></path>
        <path d="M103.797668,215.803955 C128.061381,215.624972 115.72577,213.867373 140.658737,222.014404" id="Path-16" stroke="#000000"></path>
        <path d="M183.817719,328.25415 C186.188633,325.883236 190.892457,323.125065 193.263371,320.75415 C195.892457,318.125065 196.188633,315.883236 198.817719,313.25415" id="Path-19" stroke="#000000" stroke-width="2"></path>
        <path d="M199.817719,321.25415 C202.188633,318.567114 206.892457,315.441187 209.263371,312.75415 C211.892457,309.77452 212.188633,307.233781 214.817719,304.25415" id="Path-14-Copy-2" stroke="#000000" stroke-width="2"></path>
        <path d="M175.893799,328.070114 C173.052128,329.862401 174.265263,328.789179 174.230423,329.953686 C174.211982,330.570066 172.650691,332.417827 172.567047,334.325287" id="Path-13" stroke="#000000" stroke-width="2"></path>
        <path d="M159.661194,191.668091 C164.131684,204.887667 175.505605,227.508037 165.196594,239.374451 C146.274526,261.155114 165.059562,233.682682 154.637878,249.553467" id="Path" stroke="#000000" stroke-width="2"></path>
        <path d="M215.529358,257.255478 C208.613813,221.140986 268.636997,222.695797 291.907349,227.153687" id="Path-7" stroke="#000000" stroke-width="2"></path>
        <path d="M170.208801,304.392548 C170.208801,301.260895 172.403144,309.156348 155.973507,298.029755 C153.705295,296.493661 147.66936,294.257048 140.5103,289.824226 C132.928025,285.129354 123.08679,278.191915 117.412018,275.17926 C113.405334,273.05217 100.397064,273.05217 147.697418,275.17926 C157.332849,275.612564 166.184817,287.150564 170.208801,285.364014 C170.208801,285.364014 173.653958,283.19766 175.414825,282.775085 C180.183353,281.630729 185.023541,281.064739 189.726074,279.915894 C195.162664,278.587715 200.845606,277.971062 206.366791,277.781769 C219.633915,277.326907 232.480315,281.822021 245.720978,282.775085 L170.208801,304.392548 Z" id="Path-3" stroke="#000000" stroke-width="2"></path>
        <path d="M115.789864,275.307175 C145.424973,302.531662 137.76298,297.630157 136.388176,294.93362 C135.580396,293.349242 127.820112,285.924598 149.958893,308.157181 C153.339019,311.551628 155.146498,316.3264 158.620483,319.624725 C177.737841,337.775428 199.824486,324.500716 216.028717,309.835876 C223.727793,302.868208 222.942741,294.223152 230.113373,287.714355" id="Path-18" stroke="#000000" stroke-width="2"></path>
        <path d="M244.651871,283.956833 C241.342111,286.95407 233.423133,285.991008 230.113373,288.988245 C225.01053,293.609253 224.516905,302.190561 219.414062,306.811569" id="Path-5" stroke="#000000" stroke-width="2" fill="#000000"></path>
        <path d="M143.700211,308.565559 C151.385701,322.332855 158.37629,336.511765 166.756683,349.867447 C171.391452,357.253795 186.166297,355.526766 192.877762,352.206314 C211.621467,342.932992 221.977039,320.392918 234.887421,304.852142" id="Path-6" stroke="#000000" stroke-width="2"></path>
        <path d="M151.060883,247.611984 C141.90109,255.498944 141.848654,259.604511 146.875992,264.100975 C150.037142,266.928316 154.647534,270.35259 162.015478,273.583942 C166.082664,275.367685 169.399836,274.154631 170.843185,273.583942 C173.913762,272.369861 174.141164,270.994732 180.003113,268.672157 C193.32899,263.392284 191.143731,270.011748 201.535376,262.403778 C206.283778,258.92736 204.853898,255.191325 201.535376,253.969086 C198.231667,252.752302 193.050501,254.04173 192.739166,253.969086" id="Path-8" stroke="#000000" stroke-width="2"></path>
        <path d="M235.956833,272.416489 C241.636534,275.730367 247.290559,279.354382 253.44282,279.768402 C257.709597,280.055538 261.984292,276.522126 266.281586,275.307175 C273.182647,273.356074 279.821228,270.861984 285.898956,269.065216" id="Path-9" stroke="#000000" stroke-width="2"></path>
        <path d="M134.883644,258.414787 C126.501175,263.858289 98.1986447,275.88522 91.6376877,263.375572" id="Path-10" stroke="#000000" stroke-width="2"></path>
        <path d="M115.151367,266.582291 C106.953812,272.395613 110.657035,273.159689 115.909477,283.319458" id="Path-11" stroke="#000000"></path>
        <path d="M103.061913,275.007751 C102.126895,278.88301 102.369188,279.589835 103.061913,280.519539 C103.69211,281.365326 104.559015,282.403205 107.882988,286.031326" id="Path-12" stroke="#000000" stroke-width="2"></path>
    </g>
</svg>