<?xml version="1.0" encoding="UTF-8"?>
<svg width="39px" height="39px" viewBox="0 0 39 39" version="1.1" xmlns="http://www.w3.org/2000/svg" xmlns:xlink="http://www.w3.org/1999/xlink">
    <title>Phone</title>
    <g id="Symbols" stroke="none" stroke-width="1" fill="none" fill-rule="evenodd">
        <g id="Phone">
            <path d="M0,19.4995937 C0,30.2695056 8.7303125,39 19.5,39 C30.2696875,39 39,30.2695056 39,19.4995937 C39,8.73049439 30.2696875,0 19.5,0 C8.7303125,0 0,8.73049439 0,19.4995937 Z" id="Path" fill="#FFFFFF"></path>
            <path d="M29.592875,26.8138711 L27.551875,28.8614138 C26.8775,29.5358028 25.9780625,29.8916852 25.0680625,29.8916852 C24.55375,29.8916852 24.0345625,29.7779329 23.551125,29.5431155 C21.51175,28.5518448 18.434,26.7244943 15.353,23.6434301 C12.2711875,20.5615534 10.443875,17.4837392 9.4534375,15.4451343 C8.80425,14.1085439 9.0780625,12.5005729 10.1343125,11.4434884 L12.182625,9.40975854 C12.5880625,9.00593762 13.2445625,9.00837517 13.648375,9.41382112 L17.8425,13.6332215 C18.2430625,14.0370424 18.2446875,14.6878685 17.8449375,15.0925019 L16.3288125,16.6273464 C16.709875,17.2992979 17.53375,18.5838872 18.919875,19.9708536 C20.3068125,21.35782 21.581625,22.1719619 22.2486875,22.5473447 L23.82575,21.0190004 C24.2328125,20.6257422 24.880375,20.6306173 25.280125,21.0320007 L29.5920625,25.3497156 C29.995875,25.754349 29.995875,26.4092377 29.592875,26.8138711 Z" id="Path" fill="#242F66"></path>
        </g>
    </g>
</svg>