<?xml version="1.0" standalone="no"?>
<!DOCTYPE svg PUBLIC "-//W3C//DTD SVG 20010904//EN"
 "http://www.w3.org/TR/2001/REC-SVG-20010904/DTD/svg10.dtd">
<svg version="1.0" xmlns="http://www.w3.org/2000/svg"
 width="400.000000pt" height="400.000000pt" viewBox="0 0 400.000000 400.000000"
 preserveAspectRatio="xMidYMid meet">
<metadata>
Created by potrace 1.11, written by Peter Selinger 2001-2013
</metadata>
<g transform="translate(0.000000,400.000000) scale(0.100000,-0.100000)"
fill="#000000" stroke="none">
<path d="M2080 3865 c-41 -8 -160 -41 -265 -73 -104 -33 -242 -74 -305 -91
-63 -18 -142 -47 -175 -66 -140 -78 -260 -206 -392 -415 -155 -245 -258 -391
-344 -490 -268 -308 -350 -433 -399 -612 -89 -329 -88 -663 5 -865 26 -57 72
-123 86 -123 14 0 11 63 -13 225 -14 99 -22 221 -25 358 -4 190 -3 214 16 277
12 38 26 72 31 75 14 9 12 -1 -6 -37 -10 -20 -18 -68 -21 -132 -5 -87 -2 -115
20 -201 23 -88 26 -118 24 -245 -2 -133 0 -148 20 -187 26 -48 49 -65 156
-117 60 -29 87 -49 119 -89 91 -115 115 -227 60 -287 -25 -28 -29 -30 -65 -19
-56 15 -70 10 -54 -21 21 -42 93 -74 160 -73 53 2 61 5 112 50 33 29 55 56 55
69 0 32 22 54 65 64 38 9 41 7 69 -28 102 -127 144 -146 191 -90 15 17 30 27
33 22 107 -156 293 -404 344 -459 80 -85 107 -99 187 -93 l60 4 -19 -26 c-20
-29 -96 -101 -150 -143 l-35 -27 69 0 c76 0 79 2 216 120 76 66 125 102 319
235 l145 99 -31 -45 c-63 -91 -138 -271 -157 -376 -7 -42 21 -47 30 -5 31 146
123 340 205 437 28 33 57 61 65 63 24 6 162 -65 207 -107 24 -23 49 -41 55
-41 6 0 32 18 59 40 26 22 67 56 90 75 30 26 51 35 77 35 103 0 448 176 741
377 87 60 104 77 128 125 41 80 57 162 64 334 9 235 -7 364 -83 673 -69 279
-113 416 -202 626 -62 148 -246 538 -299 635 -104 189 -221 325 -318 371 -55
27 -69 29 -172 29 l-113 0 -47 37 c-70 53 -113 69 -287 108 -171 38 -195 40
-306 20z m318 -67 c34 -12 62 -25 62 -30 0 -12 -15 -10 -70 12 -125 49 -445 2
-572 -83 -48 -33 -68 -39 -68 -22 0 8 4 15 10 15 5 0 26 11 46 25 41 28 197
81 277 94 29 5 97 9 152 10 80 1 113 -3 163 -21z m384 -324 c201 -279 365
-612 563 -1141 31 -80 54 -147 53 -149 -2 -1 -47 102 -102 229 -239 562 -423
888 -599 1060 l-59 59 13 46 13 46 30 -36 c17 -20 57 -71 88 -114z m-63 -219
c81 -107 174 -249 261 -400 71 -122 240 -453 240 -469 0 -6 -30 43 -67 109
-212 383 -430 702 -538 791 -24 19 -42 41 -40 47 3 7 9 26 16 42 l11 30 24
-30 c14 -16 56 -70 93 -120z m-97 -57 c131 -166 275 -392 432 -676 54 -98 76
-150 37 -87 -10 17 -78 127 -151 245 -238 384 -340 520 -390 520 -19 0 -21 4
-15 33 7 31 13 47 19 47 2 0 32 -37 68 -82z m823 -373 c133 -272 191 -403 239
-544 39 -112 122 -437 131 -511 5 -42 2 -39 -44 55 -31 62 -50 114 -50 137 -3
163 -146 545 -417 1117 -35 74 -64 137 -64 140 1 13 98 -174 205 -394z m-1880
336 l70 -18 -45 -7 c-80 -14 -128 -42 -207 -123 l-77 -78 53 75 c29 41 67 96
84 122 18 26 37 48 42 48 6 0 42 -9 80 -19z m976 -30 c8 -10 48 -63 90 -117
94 -124 156 -215 251 -374 154 -257 127 -227 -72 80 -202 311 -255 380 -293
380 -13 0 -17 5 -13 16 3 9 6 20 6 25 0 15 17 10 31 -10z m-726 -132 c132 -42
218 -59 300 -59 94 1 148 14 216 56 31 18 66 34 77 34 30 0 66 -43 114 -135
23 -44 58 -105 78 -135 157 -234 350 -578 431 -765 143 -334 134 -584 -33
-937 l-51 -107 -161 -129 c-226 -181 -345 -269 -502 -372 -243 -159 -425 -240
-543 -240 l-56 0 -80 83 c-135 139 -547 727 -643 915 l-57 114 -3 105 c-6 172
51 440 155 719 l44 122 69 -4 c114 -6 215 -50 324 -139 30 -24 57 -41 60 -38
3 4 6 20 6 36 0 39 -54 89 -142 132 -84 41 -180 53 -253 31 -27 -9 -51 -13
-54 -11 -14 14 243 529 320 642 79 114 202 141 384 82z m1475 -74 c0 -5 -5 -3
-10 5 -5 8 -10 20 -10 25 0 6 5 3 10 -5 5 -8 10 -19 10 -25z m150 -351 c116
-276 182 -455 225 -604 38 -133 118 -512 113 -538 -6 -30 -88 196 -88 242 0
141 -108 488 -315 1016 -42 107 -79 202 -81 210 -10 36 65 -131 146 -326z
m156 -732 c54 -188 89 -355 108 -527 18 -159 25 -237 19 -231 -10 10 -43 154
-43 191 -1 131 -79 472 -211 916 -45 151 -83 283 -85 294 -8 41 169 -496 212
-643z m-2745 537 c-133 -355 -209 -615 -219 -747 l-7 -86 -33 112 -32 111 40
110 c62 169 275 620 287 608 2 -2 -14 -51 -36 -108z m2382 -814 c1 -136 -24
-301 -78 -509 -30 -117 -37 -133 -73 -168 l-39 -40 33 68 c42 86 67 182 99
368 21 122 25 184 26 354 l1 207 15 -80 c8 -44 15 -134 16 -200z"/>
<path d="M2462 2264 c-115 -30 -221 -86 -289 -150 l-48 -45 45 6 c26 3 71 21
105 42 111 69 247 123 307 123 40 0 88 -22 132 -60 26 -23 40 -30 47 -23 13
13 -50 87 -92 109 -35 18 -137 17 -207 -2z"/>
<path d="M1590 2077 c0 -2 19 -55 42 -118 37 -103 41 -123 42 -211 1 -93 0
-97 -30 -135 -17 -21 -43 -44 -57 -51 -31 -15 -52 -48 -37 -57 15 -9 107 82
130 129 25 52 27 150 4 227 -30 101 -76 219 -85 219 -5 0 -9 -1 -9 -3z"/>
<path d="M1170 2007 c0 -7 6 -19 13 -26 18 -20 -72 -5 -95 16 -17 15 -18 15
-18 -1 0 -10 14 -23 33 -31 l32 -14 -35 -2 c-19 0 -46 -4 -60 -8 -21 -6 -18
-9 29 -24 69 -22 87 -21 166 5 59 19 73 20 127 10 33 -6 63 -14 66 -17 3 -2
-3 -14 -14 -26 -15 -17 -27 -20 -57 -16 -38 5 -38 5 -20 -15 26 -29 71 -46
153 -58 39 -6 82 -17 95 -26 16 -11 25 -12 25 -5 0 32 -33 82 -86 129 -60 54
-62 59 -20 42 39 -14 31 -3 -8 14 -19 8 -87 17 -152 21 -96 5 -124 10 -146 26
-20 14 -28 16 -28 6z m287 -53 c-3 -3 -12 -4 -19 -1 -8 3 -5 6 6 6 11 1 17 -2
13 -5z"/>
<path d="M2214 1946 c-69 -22 -145 -69 -170 -105 -13 -19 -22 -37 -20 -39 2
-2 50 21 107 50 102 52 106 53 191 53 110 0 128 -13 79 -57 -30 -26 -39 -29
-75 -24 l-41 6 33 -30 33 -31 202 6 c228 7 296 12 317 25 25 15 4 22 -37 11
-54 -15 -108 -14 -123 4 -10 12 -5 16 34 26 25 6 46 16 46 21 0 6 -10 8 -22 4
-59 -16 -103 -17 -123 -2 -20 15 -20 15 2 16 20 0 40 16 31 25 -2 2 -19 0 -38
-4 -26 -6 -45 -3 -75 12 -22 11 -62 26 -90 33 -63 17 -207 17 -261 0z"/>
<path d="M1140 1840 c75 -5 126 -14 179 -33 41 -15 76 -25 78 -23 2 2 -38 18
-89 35 -79 26 -106 31 -183 29 l-90 -1 105 -7z"/>
<path d="M2478 1750 c-143 -23 -252 -75 -301 -146 -23 -32 -30 -56 -34 -108
-4 -46 -2 -66 6 -66 7 0 11 19 11 48 0 180 206 274 565 258 77 -3 152 -9 168
-12 15 -4 27 -2 27 4 0 5 -12 13 -27 16 -47 11 -355 15 -415 6z"/>
<path d="M1466 1490 c-52 -58 -50 -96 8 -147 55 -48 149 -95 190 -95 17 0 63
16 102 36 52 27 90 38 138 43 106 10 179 74 138 122 -10 11 -26 21 -37 22 -42
3 -75 -1 -75 -11 0 -5 18 -9 40 -8 25 1 47 -5 56 -14 13 -13 12 -17 -5 -40
-25 -31 -59 -45 -134 -53 -38 -4 -83 -19 -125 -42 -37 -19 -81 -35 -98 -35
-39 0 -123 43 -174 89 -50 44 -52 74 -9 126 43 52 31 57 -15 7z"/>
<path d="M1300 1400 c-73 -40 -193 -74 -262 -75 -57 0 -70 3 -92 24 -30 28
-48 21 -21 -9 25 -28 81 -43 135 -37 45 5 47 5 43 -18 -3 -14 6 -41 22 -69 33
-57 43 -60 15 -5 -17 33 -18 40 -6 37 26 -5 357 -331 397 -390 44 -64 84 -98
152 -128 42 -19 46 -24 41 -45 -8 -32 9 -32 24 -1 9 20 19 24 74 28 46 3 84
13 138 39 78 37 209 136 255 192 45 55 208 196 250 217 35 18 37 20 14 20 -14
0 -92 11 -175 25 -197 33 -285 32 -454 -6 -74 -16 -145 -32 -157 -35 -14 -4
-36 4 -68 26 -94 65 -113 69 -323 72 -120 2 -192 7 -192 13 0 22 19 34 106 68
96 37 134 57 134 69 0 12 -12 9 -50 -12z m227 -176 c18 -7 53 -27 77 -44 65
-44 86 -50 119 -33 47 24 265 63 353 63 70 0 299 -32 310 -43 6 -6 -668 -197
-694 -197 -30 0 -246 117 -387 209 l-110 72 150 -7 c86 -4 164 -12 182 -20z
m-47 -174 c35 -18 82 -44 104 -57 88 -56 86 -56 330 14 122 35 251 72 288 82
l67 19 -40 -81 c-38 -75 -92 -147 -111 -147 -4 0 1 15 12 33 22 35 25 47 12
47 -5 0 -18 -17 -30 -38 -17 -31 -58 -72 -146 -149 -1 -1 -20 -10 -42 -18
l-39 -16 32 26 c29 23 73 83 73 99 0 17 -21 3 -35 -24 -8 -16 -39 -48 -67 -71
-51 -40 -54 -41 -119 -37 -89 5 -147 40 -216 133 -28 39 -116 132 -195 208
l-143 138 100 -64 c55 -36 129 -79 165 -97z"/>
<path d="M2745 1284 c-55 -19 -122 -43 -149 -55 -43 -18 -54 -19 -94 -9 -25 6
-64 22 -87 36 -45 26 -55 29 -55 16 0 -14 90 -59 141 -72 39 -10 52 -9 85 5
21 10 91 35 154 56 63 20 116 42 118 48 5 15 0 14 -113 -25z"/>
<path d="M1017 1233 c-4 -21 15 -64 38 -83 27 -22 29 -2 2 29 -16 19 -23 38
-20 51 3 11 1 20 -5 20 -6 0 -12 -8 -15 -17z"/>
<path d="M2224 798 c-125 -176 -210 -265 -291 -305 -49 -23 -71 -28 -135 -28
-73 0 -79 2 -107 30 -16 17 -67 98 -112 180 -130 237 -136 248 -142 238 -6 -9
159 -318 211 -396 41 -62 81 -79 168 -74 142 10 248 96 425 345 60 84 109 155
109 157 0 22 -33 -17 -126 -147z"/>
</g>
</svg>
