<?xml version="1.0" standalone="no"?>
<!DOCTYPE svg PUBLIC "-//W3C//DTD SVG 20010904//EN"
 "http://www.w3.org/TR/2001/REC-SVG-20010904/DTD/svg10.dtd">
<svg version="1.0" xmlns="http://www.w3.org/2000/svg"
 width="558.000000pt" height="558.000000pt" viewBox="0 0 558.000000 558.000000"
 preserveAspectRatio="xMidYMid meet">
<metadata>
Created by potrace 1.11, written by Peter Selinger 2001-2013
</metadata>
<g transform="translate(0.000000,558.000000) scale(0.100000,-0.100000)"
fill="#000000" stroke="none">
<path d="M2530 5568 c-89 -9 -329 -46 -340 -53 -4 -2 -17 -6 -31 -8 -153 -29
-393 -114 -587 -208 -219 -107 -449 -258 -607 -398 -466 -415 -769 -925 -899
-1511 -47 -212 -61 -351 -61 -600 1 -277 15 -403 75 -655 61 -258 186 -570
296 -742 19 -29 34 -56 34 -59 0 -2 30 -49 67 -102 399 -581 962 -977 1633
-1147 121 -31 122 -31 249 -51 155 -23 235 -29 431 -29 273 0 440 20 685 81
104 26 288 85 340 109 17 7 50 21 75 31 139 54 411 211 559 322 136 102 172
134 317 277 153 152 231 248 362 445 176 265 324 617 387 920 47 229 60 361
60 610 -1 102 -4 216 -8 253 -10 95 -36 275 -47 317 -49 194 -69 262 -108 370
-130 364 -340 700 -621 994 -133 138 -408 359 -541 434 -19 10 -64 36 -99 57
-181 107 -499 231 -719 280 -66 15 -226 44 -267 49 -27 4 -66 9 -85 12 -62 9
-462 11 -550 2z"/>
</g>
</svg>
